<svg width="496" height="496" viewBox="0 0 496 496" fill="none" xmlns="http://www.w3.org/2000/svg">
<path d="M280 160C320 264 272 432 272 432C408 432 408 160 408 160H280Z" fill="#A34815"/>
<path d="M0 496L30.52 425.056C36.5982 414.122 46.7051 405.993 58.688 402.4L200 360V288H296V360L437.312 402.4C449.296 405.995 459.403 414.127 465.48 425.064L496 496H0ZM336 224C344.487 224 352.626 220.629 358.627 214.627C364.629 208.626 368 200.487 368 192C368 183.513 364.629 175.374 358.627 169.373C352.626 163.371 344.487 160 336 160V224Z" fill="#FFC19E"/>
<path d="M216 160C176 264 224 432 224 432C88 432 88 160 88 160H216Z" fill="#A34815"/>
<path d="M160 96H336V240C336 261.217 327.571 281.566 312.569 296.569C297.566 311.571 277.217 320 256 320H240C218.783 320 198.434 311.571 183.431 296.569C168.429 281.566 160 261.217 160 240V96Z" fill="#FFCEA3"/>
<path d="M160 224C151.513 224 143.374 220.629 137.373 214.627C131.371 208.626 128 200.487 128 192C128 183.513 131.371 175.374 137.373 169.373C143.374 163.371 151.513 160 160 160V224Z" fill="#FFC19E"/>
<path d="M208 32C208 32 224 0 272 0C320 0 408 24 408 160H336L296 120C280 176 160 160 160 160H88C88 160 96 -24 208 32Z" fill="#A34815"/>
<path d="M105.536 496H390.464L402.464 391.944L371.2 382.552L360 472C360 472 344 456 304 456C264 456 248 472 248 472C248 472 232 456 192 456C152 456 136 472 136 472L124.8 382.552L93.512 391.944L105.536 496Z" fill="#E6294F"/>
<path d="M288 208C285.878 208 283.843 207.157 282.343 205.657C280.843 204.157 280 202.122 280 200V184C280 181.878 280.843 179.843 282.343 178.343C283.843 176.843 285.878 176 288 176C290.122 176 292.157 176.843 293.657 178.343C295.157 179.843 296 181.878 296 184V200C296 202.122 295.157 204.157 293.657 205.657C292.157 207.157 290.122 208 288 208ZM208 208C205.878 208 203.843 207.157 202.343 205.657C200.843 204.157 200 202.122 200 200V184C200 181.878 200.843 179.843 202.343 178.343C203.843 176.843 205.878 176 208 176C210.122 176 212.157 176.843 213.657 178.343C215.157 179.843 216 181.878 216 184V200C216 202.122 215.157 204.157 213.657 205.657C212.157 207.157 210.122 208 208 208Z" fill="#47323B"/>
<path d="M248 296C240.228 296.508 232.466 294.872 225.561 291.27C218.655 287.668 212.871 282.24 208.84 275.576C207.88 273.683 207.711 271.487 208.37 269.47C209.03 267.453 210.463 265.78 212.356 264.82C214.249 263.86 216.445 263.691 218.462 264.35C220.479 265.01 222.152 266.443 223.112 268.336C225.851 272.315 229.6 275.493 233.974 277.543C238.348 279.593 243.19 280.441 248 280C252.814 280.447 257.66 279.601 262.037 277.547C266.414 275.494 270.163 272.308 272.896 268.32C273.883 266.453 275.568 265.052 277.584 264.423C279.599 263.794 281.782 263.987 283.656 264.96C285.521 265.911 286.935 267.559 287.591 269.547C288.248 271.535 288.093 273.702 287.16 275.576C283.129 282.24 277.345 287.668 270.439 291.27C263.534 294.872 255.772 296.508 248 296ZM256 256H248C243.757 256 239.687 254.314 236.686 251.314C233.686 248.313 232 244.243 232 240V216C232 213.878 232.843 211.843 234.343 210.343C235.843 208.843 237.878 208 240 208C242.122 208 244.157 208.843 245.657 210.343C247.157 211.843 248 213.878 248 216V240H256C258.122 240 260.157 240.843 261.657 242.343C263.157 243.843 264 245.878 264 248C264 250.122 263.157 252.157 261.657 253.657C260.157 255.157 258.122 256 256 256Z" fill="#F0A47D"/>
<path d="M144 256C141.878 256 139.843 255.157 138.343 253.657C136.843 252.157 136 250.122 136 248V216C136 213.878 136.843 211.843 138.343 210.343C139.843 208.843 141.878 208 144 208C146.122 208 148.157 208.843 149.657 210.343C151.157 211.843 152 213.878 152 216V248C152 250.122 151.157 252.157 149.657 253.657C148.157 255.157 146.122 256 144 256ZM352 256C349.878 256 347.843 255.157 346.343 253.657C344.843 252.157 344 250.122 344 248V216C344 213.878 344.843 211.843 346.343 210.343C347.843 208.843 349.878 208 352 208C354.122 208 356.157 208.843 357.657 210.343C359.157 211.843 360 213.878 360 216V248C360 250.122 359.157 252.157 357.657 253.657C356.157 255.157 354.122 256 352 256Z" fill="#9FE2FC"/>
</svg>
