<svg width="496" height="496" viewBox="0 0 496 496" fill="none" xmlns="http://www.w3.org/2000/svg">
<path d="M344 120C424 136 400 64 400 64C408 8 360 16 360 16C360 16 352 0 312 0C272 0 272 48 272 48L344 120Z" fill="#D6A117"/>
<path d="M0 496L30.52 425.056C36.5982 414.122 46.7051 405.993 58.688 402.4L200 360V288H296V360L437.312 402.4C449.296 405.995 459.403 414.127 465.48 425.064L496 496H0Z" fill="#FFC19E"/>
<path d="M160 96H336V240C336 261.217 327.571 281.566 312.569 296.569C297.566 311.571 277.217 320 256 320H240C218.783 320 198.434 311.571 183.431 296.569C168.429 281.566 160 261.217 160 240V96Z" fill="#FFCEA3"/>
<path d="M336 224C344.487 224 352.626 220.629 358.627 214.627C364.629 208.626 368 200.487 368 192C368 183.513 364.629 175.374 358.627 169.373C352.626 163.371 344.487 160 336 160V224ZM160 224C151.513 224 143.374 220.629 137.373 214.627C131.371 208.626 128 200.487 128 192C128 183.513 131.371 175.374 137.373 169.373C143.374 163.371 151.513 160 160 160V224Z" fill="#FFC19E"/>
<path d="M384 192C363.492 185.7 344.442 175.382 327.961 161.647C311.479 147.912 297.895 131.036 288 112C256 168 224 160 224 160C240 136 232 104 232 104C232 104 184 168 112 184C112 184 136 144 136 104C136 63.9999 176 7.99991 272 23.9999C272 23.9999 384 -9.15527e-05 384 192Z" fill="#FAC437"/>
<path d="M168.8 369.352L244.424 407.2C245.534 407.755 246.759 408.044 248 408.044C249.241 408.044 250.466 407.755 251.576 407.2L327.2 369.352L304.8 362.648L248 391.056L191.2 362.648L168.8 369.352Z" fill="#BA2140"/>
<path d="M465.48 425.055C459.402 414.121 449.295 405.992 437.312 402.399L398.056 390.623C397.512 391.063 396.984 391.423 396.456 391.935C387.008 400.119 385.256 421.839 372.208 430.495C360.944 437.959 340.704 431.239 327.232 437.439C314.632 443.239 306.384 463.199 292.216 466.615C278.664 469.879 262.632 455.999 248 455.999C233.368 455.999 217.344 469.879 203.824 466.615C189.656 463.191 181.424 443.231 168.8 437.431C155.336 431.231 135.096 437.959 123.832 430.487C110.768 421.823 108.992 400.087 99.536 391.895C98.992 391.423 98.48 391.047 97.936 390.615L58.688 402.399C46.7037 405.994 36.5966 414.126 30.52 425.063L0 495.999H496L465.48 425.055Z" fill="#99B61E"/>
<path d="M223.936 391.984L247.936 367.984L271.936 391.984L247.936 415.984L223.936 391.984Z" fill="#607312"/>
<path d="M288 208C285.878 208 283.843 207.157 282.343 205.657C280.843 204.157 280 202.122 280 200V184C280 181.878 280.843 179.843 282.343 178.343C283.843 176.843 285.878 176 288 176C290.122 176 292.157 176.843 293.657 178.343C295.157 179.843 296 181.878 296 184V200C296 202.122 295.157 204.157 293.657 205.657C292.157 207.157 290.122 208 288 208ZM208 208C205.878 208 203.843 207.157 202.343 205.657C200.843 204.157 200 202.122 200 200V184C200 181.878 200.843 179.843 202.343 178.343C203.843 176.843 205.878 176 208 176C210.122 176 212.157 176.843 213.657 178.343C215.157 179.843 216 181.878 216 184V200C216 202.122 215.157 204.157 213.657 205.657C212.157 207.157 210.122 208 208 208Z" fill="#47323B"/>
<path d="M248 295.999C240.228 296.507 232.466 294.871 225.561 291.269C218.655 287.668 212.871 282.239 208.84 275.575C207.88 273.683 207.711 271.486 208.37 269.469C209.03 267.452 210.463 265.779 212.356 264.819C214.249 263.859 216.445 263.69 218.462 264.35C220.479 265.009 222.152 266.443 223.112 268.335C225.851 272.314 229.6 275.492 233.974 277.542C238.348 279.592 243.19 280.44 248 279.999C252.814 280.447 257.66 279.6 262.037 277.547C266.414 275.493 270.163 272.308 272.896 268.319C273.883 266.453 275.568 265.052 277.584 264.422C279.599 263.793 281.782 263.986 283.656 264.959C285.521 265.91 286.935 267.559 287.591 269.547C288.248 271.535 288.093 273.701 287.16 275.575C283.129 282.239 277.345 287.668 270.439 291.269C263.534 294.871 255.772 296.507 248 295.999ZM248 247.999C236.928 247.999 224 243.815 224 231.999C224 221.791 236.8 207.855 242.344 202.343C243.853 200.886 245.874 200.08 247.971 200.098C250.069 200.116 252.075 200.958 253.559 202.441C255.042 203.924 255.883 205.931 255.901 208.028C255.92 210.126 255.113 212.147 253.656 213.655C248.427 218.688 243.966 224.461 240.416 230.791C242.87 231.568 245.426 231.976 248 231.999C250.122 231.999 252.157 232.842 253.657 234.342C255.157 235.843 256 237.878 256 239.999C256 242.121 255.157 244.156 253.657 245.656C252.157 247.157 250.122 247.999 248 247.999Z" fill="#F0A47D"/>
<path d="M144 312C141.878 312 139.843 311.157 138.343 309.657C136.843 308.157 136 306.122 136 304V208C136 205.878 136.843 203.843 138.343 202.343C139.843 200.843 141.878 200 144 200C146.122 200 148.157 200.843 149.657 202.343C151.157 203.843 152 205.878 152 208V304C152 306.122 151.157 308.157 149.657 309.657C148.157 311.157 146.122 312 144 312ZM352 312C349.878 312 347.843 311.157 346.343 309.657C344.843 308.157 344 306.122 344 304V208C344 205.878 344.843 203.843 346.343 202.343C347.843 200.843 349.878 200 352 200C354.122 200 356.157 200.843 357.657 202.343C359.157 203.843 360 205.878 360 208V304C360 306.122 359.157 308.157 357.657 309.657C356.157 311.157 354.122 312 352 312Z" fill="#BA2140"/>
<path d="M144 288L128 312L144 336L160 312L144 288ZM352 288L336 312L352 336L368 312L352 288Z" fill="#607312"/>
</svg>
