<svg width="496" height="496" viewBox="0 0 496 496" fill="none" xmlns="http://www.w3.org/2000/svg">
<path d="M152 304H344V384H152V304Z" fill="#607312"/>
<path d="M336 336C336 322.528 288.688 312.04 248 312C207.312 311.96 160 322.528 160 336H128C128 282.704 228 280 248 280C268 280 368 282.704 368 336H336Z" fill="#F8EAD3"/>
<path d="M473.912 410.168C470.783 404.432 466.517 399.395 461.373 395.366C456.23 391.337 450.318 388.4 444 386.736L296 352V288H200V352L52 386.736C45.679 388.398 39.7641 391.334 34.6178 395.363C29.4715 399.393 25.2024 404.43 22.072 410.168L0 496H496L473.912 410.168Z" fill="#F0A47D"/>
<path d="M473.912 410.168C470.783 404.432 466.517 399.395 461.373 395.366C456.23 391.337 450.318 388.4 444 386.736L345.096 363.536C335.838 381.409 321.935 396.457 304.849 407.097C287.762 417.737 268.124 423.576 248 424C227.877 423.572 208.241 417.729 191.158 407.086C174.074 396.443 160.174 381.394 150.92 363.52L52 386.736C45.679 388.398 39.7641 391.334 34.6178 395.363C29.4715 399.392 25.2024 404.43 22.072 410.168L0 496H496L473.912 410.168Z" fill="#99B61E"/>
<path d="M128 96H176V192H128V96ZM320 96H368V192H320V96Z" fill="#634653"/>
<path d="M152 96H344V240C344 250.506 341.931 260.909 337.91 270.615C333.89 280.321 327.997 289.14 320.569 296.569C313.14 303.997 304.321 309.89 294.615 313.91C284.909 317.931 274.506 320 264 320H235.56C213.399 320 192.145 311.196 176.474 295.526C160.804 279.855 152 258.601 152 236.44V96Z" fill="#FFC19E"/>
<path d="M152 232C143.513 232 135.374 228.629 129.373 222.627C123.371 216.626 120 208.487 120 200C120 191.513 123.371 183.374 129.373 177.373C135.374 171.371 143.513 168 152 168V232ZM344 232C352.487 232 360.626 228.629 366.627 222.627C372.629 216.626 376 208.487 376 200C376 191.513 372.629 183.374 366.627 177.373C360.626 171.371 352.487 168 344 168V232Z" fill="#F0A47D"/>
<path d="M152 176H344V192H152V176Z" fill="#1B498F"/>
<path d="M218.576 216H197.424C193.376 216.106 189.426 214.746 186.301 212.171C183.175 209.596 181.086 205.978 180.416 201.984L176.136 169.984C175.912 167.651 176.189 165.296 176.95 163.079C177.712 160.861 178.939 158.833 180.549 157.129C182.16 155.425 184.116 154.086 186.287 153.201C188.458 152.317 190.794 151.907 193.136 152H222.864C225.207 151.907 227.542 152.317 229.713 153.201C231.884 154.086 233.841 155.425 235.451 157.129C237.061 158.833 238.289 160.861 239.05 163.079C239.811 165.296 240.089 167.651 239.864 169.984L235.584 201.984C234.914 205.978 232.825 209.596 229.7 212.171C226.574 214.746 222.624 216.106 218.576 216ZM298.576 216H277.424C273.376 216.106 269.426 214.746 266.301 212.171C263.175 209.596 261.086 205.978 260.416 201.984L256.136 169.984C255.912 167.651 256.189 165.296 256.95 163.079C257.712 160.861 258.939 158.833 260.549 157.129C262.16 155.425 264.116 154.086 266.287 153.201C268.458 152.317 270.793 151.907 273.136 152H302.864C305.207 151.907 307.542 152.317 309.713 153.201C311.884 154.086 313.841 155.425 315.451 157.129C317.061 158.833 318.289 160.861 319.05 163.079C319.811 165.296 320.089 167.651 319.864 169.984L315.584 201.984C314.914 205.978 312.825 209.596 309.7 212.171C306.574 214.746 302.624 216.106 298.576 216Z" fill="#F8EAD3"/>
<path d="M176 40C176 40 128 32 128 96V128C128 128 160 136 208 104C208 104 224 136 288 136L272 96C272 96 320 128 368 136C368 136 392 0 264 0C192 0 176 40 176 40Z" fill="#634653"/>
<path d="M218.576 224H197.424C191.439 224.106 185.618 222.042 181.035 218.192C176.451 214.341 173.416 208.962 172.488 203.048L168.2 171.048C167.775 167.757 168.058 164.412 169.031 161.239C170.004 158.065 171.643 155.137 173.84 152.648C176.255 149.916 179.226 147.73 182.553 146.239C185.881 144.748 189.489 143.984 193.136 144H222.864C226.508 143.98 230.115 144.739 233.443 146.224C236.77 147.71 239.742 149.89 242.16 152.616C244.357 155.105 245.996 158.033 246.969 161.207C247.942 164.38 248.225 167.725 247.8 171.016L243.512 203.016C242.591 208.936 239.559 214.322 234.975 218.179C230.391 222.037 224.566 224.104 218.576 224ZM193.136 160C191.772 159.98 190.419 160.251 189.168 160.794C187.917 161.338 186.796 162.142 185.88 163.152C185.177 163.925 184.651 164.84 184.337 165.836C184.024 166.832 183.93 167.885 184.064 168.92L188.344 200.92C188.755 202.994 189.898 204.851 191.565 206.151C193.233 207.452 195.312 208.108 197.424 208H218.576C220.688 208.108 222.767 207.452 224.435 206.151C226.102 204.851 227.245 202.994 227.656 200.92L231.936 168.92C232.07 167.885 231.976 166.832 231.663 165.836C231.349 164.84 230.823 163.925 230.12 163.152C229.204 162.142 228.083 161.338 226.832 160.794C225.581 160.251 224.228 159.98 222.864 160H193.136Z" fill="#1B498F"/>
<path d="M298.576 224H277.424C271.439 224.106 265.618 222.042 261.035 218.192C256.451 214.341 253.416 208.962 252.488 203.048L248.2 171.048C247.77 167.76 248.047 164.417 249.012 161.244C249.978 158.07 251.61 155.14 253.8 152.648C256.219 149.911 259.196 147.722 262.532 146.231C265.867 144.739 269.483 143.979 273.136 144H302.864C306.508 143.98 310.115 144.739 313.443 146.225C316.77 147.71 319.742 149.89 322.16 152.616C324.35 155.108 325.982 158.038 326.948 161.212C327.913 164.385 328.19 167.728 327.76 171.016L323.472 203.016C322.552 208.929 319.525 214.31 314.95 218.166C310.374 222.023 304.559 224.095 298.576 224ZM273.136 160C271.772 159.98 270.419 160.251 269.168 160.794C267.917 161.338 266.796 162.142 265.88 163.152C265.177 163.925 264.651 164.841 264.337 165.837C264.024 166.833 263.93 167.885 264.064 168.92L268.344 200.92C268.755 202.995 269.898 204.851 271.565 206.152C273.233 207.452 275.312 208.108 277.424 208H298.576C300.688 208.108 302.767 207.452 304.435 206.152C306.102 204.851 307.245 202.995 307.656 200.92L311.936 168.92C312.07 167.885 311.976 166.833 311.663 165.837C311.349 164.841 310.823 163.925 310.12 163.152C309.204 162.142 308.083 161.338 306.832 160.794C305.581 160.251 304.228 159.98 302.864 160H273.136Z" fill="#1B498F"/>
<path d="M288 200C285.878 200 283.843 199.157 282.343 197.657C280.843 196.157 280 194.122 280 192V176C280 173.878 280.843 171.843 282.343 170.343C283.843 168.843 285.878 168 288 168C290.122 168 292.157 168.843 293.657 170.343C295.157 171.843 296 173.878 296 176V192C296 194.122 295.157 196.157 293.657 197.657C292.157 199.157 290.122 200 288 200ZM208 200C205.878 200 203.843 199.157 202.343 197.657C200.843 196.157 200 194.122 200 192V176C200 173.878 200.843 171.843 202.343 170.343C203.843 168.843 205.878 168 208 168C210.122 168 212.157 168.843 213.657 170.343C215.157 171.843 216 173.878 216 176V192C216 194.122 215.157 196.157 213.657 197.657C212.157 199.157 210.122 200 208 200Z" fill="#47323B"/>
<path d="M248 296C240.228 296.507 232.467 294.87 225.562 291.269C218.656 287.667 212.872 282.239 208.84 275.576C207.88 273.683 207.711 271.487 208.37 269.47C209.03 267.452 210.463 265.78 212.356 264.82C214.249 263.86 216.445 263.691 218.462 264.35C220.479 265.01 222.152 266.443 223.112 268.336C225.851 272.315 229.6 275.493 233.974 277.543C238.348 279.593 243.19 280.441 248 280C252.814 280.446 257.659 279.598 262.036 277.545C266.413 275.491 270.162 272.307 272.896 268.32C273.883 266.453 275.568 265.052 277.584 264.423C279.599 263.793 281.782 263.986 283.656 264.96C285.521 265.911 286.935 267.559 287.591 269.547C288.248 271.535 288.093 273.702 287.16 275.576C283.128 282.239 277.344 287.667 270.439 291.269C263.533 294.87 255.772 296.507 248 296Z" fill="#F0A47D"/>
<path d="M248 264C241.635 264 235.53 261.471 231.029 256.971C226.529 252.47 224 246.365 224 240C224 233.635 226.529 227.53 231.029 223.029C235.53 218.529 241.635 216 248 216C250.122 216 252.157 216.843 253.657 218.343C255.157 219.843 256 221.878 256 224C256 226.122 255.157 228.157 253.657 229.657C252.157 231.157 250.122 232 248 232C245.878 232 243.843 232.843 242.343 234.343C240.843 235.843 240 237.878 240 240C240 242.122 240.843 244.157 242.343 245.657C243.843 247.157 245.878 248 248 248C250.122 248 252.157 248.843 253.657 250.343C255.157 251.843 256 253.878 256 256C256 258.122 255.157 260.157 253.657 261.657C252.157 263.157 250.122 264 248 264Z" fill="#F0A47D"/>
<path d="M264 480C261.878 480 259.843 479.157 258.343 477.657C256.843 476.157 256 474.122 256 472C255.273 464.86 252.494 458.084 248 452.488C243.506 458.084 240.727 464.86 240 472C240 474.122 239.157 476.157 237.657 477.657C236.157 479.157 234.122 480 232 480C229.878 480 227.843 479.157 226.343 477.657C224.843 476.157 224 474.122 224 472C224 453.224 240.464 436.216 242.344 434.344C243.844 432.844 245.879 432.002 248 432.002C250.121 432.002 252.156 432.844 253.656 434.344C255.536 436.216 272 453.224 272 472C272 474.122 271.157 476.157 269.657 477.657C268.157 479.157 266.122 480 264 480Z" fill="#607312"/>
<path d="M248 408C201.432 408 160 367.736 160 336H128C128 383.112 181.528 440 248 440C314.472 440 368 383.112 368 336H336C336 367.736 294.568 408 248 408Z" fill="#F8EAD3"/>
</svg>
